Zig and Zag Best Bitz from Back Den DVDRip x264 AC3 DeViL303

It's 21 years since the mischievous duo arrived from Zog and hit our screens on RTÉ and since then day time television has never been the same. From that fateful day in 1987 a generation of children grew up watching the beige one and his purple spotty brother turn children’s television on its head along with all the students who used to bunk off school to watch all the anarchy..! This nostalgia DVD brings us on trip down memory lane with the best bits from the days with Ian Dempsey, Ray Darcy and all the old gang..! It features classic comedy clips with Dustin, Zuppy and many of the old faithful characters such as Captain Joke and Captain Pillowcase.

So for pure reminisence and a good old giggle this is an ideal gift for young and old..!

DVD rip + Extras


File Info:
Complete name                            : Zig and Zag Best Bitz from Back Den DVDRip x264 AC3 DeViL303.mkv
Format                                   : Matroska
Format version                           : Version 1
File size                                : 949 MiB
Duration                                 : 1h 28mn
Overall bit rate mode                    : Variable
Overall bit rate                         : 1 497 Kbps
Encoded date                             : UTC 2013-03-12 11:06:54
Writing application                      : mkvmerge v2.5.3 ('Boogie') built on Mar  7 2009 15:00:41
Writing library                          : libebml v0.7.7 + libmatroska v0.8.1

Video
ID                                       : 1
Format                                   : AVC
Format/Info                              : Advanced Video Codec
Format profile                           : High@L3.0
Format settings, CABAC                   : Yes
Format settings, ReFrames                : 3 frames
Codec ID                                 : V_MPEG4/ISO/AVC
Duration                                 : 1h 28mn
Bit rate mode                            : Variable
Bit rate                                 : 1 303 Kbps
Maximum bit rate                         : 12.0 Mbps
Width                                    : 720 pixels
Height                                   : 480 pixels
Display aspect ratio                     : 16:9
Original display aspect ratio            : 3:2
Frame rate mode                          : Constant
Frame rate                               : 29.970 fps
Standard                                 : NTSC
Color space                              : YUV
Chroma subsampling                       : 4:2:0
Bit depth                                : 8 bits
Scan type                                : Progressive
Bits/(Pixel*Frame)                       : 0.126
Stream size                              : 808 MiB (85%)
Writing library                          : x264 core 93 r1542M 5b86182
Encoding settings                        : cabac=1 / ref=4 / deblock=1:-1:-1 / 
Default                                  : Yes
Forced                                   : No

Audio
ID                                       : 2
Format                                   : AC-3
Format/Info                              : Audio Coding 3
Mode extension                           : CM (complete main)
Format settings, Endianness              : Big
Codec ID                                 : A_AC3
Duration                                 : 1h 28mn
Bit rate mode                            : Constant
Bit rate                                 : 192 Kbps
Channel(s)                               : 2 channels
Channel positions                        : Front: L R
Sampling rate                            : 48.0 KHz
Bit depth                                : 16 bits
Compression mode                         : Lossy
Stream size                              : 122 MiB (13%)
Default                                  : Yes
Forced                                   : No

Text
ID                                       : 3
Format                                   : SSA
Codec ID                                 : S_TEXT/SSA
Codec ID/Info                            : Sub Station Alpha
Compression mode                         : Lossless
Default                                  : Yes
Forced                                   : No

Menu
00:00:00.000                             : en:Chapter 1n[00:00:00]
00:08:03.574                             : en:Chapter 2n[00:08:03]
00:16:07.148                             : en:Chapter 3n[00:16:07]
00:24:10.721                             : en:Chapter 4n[00:24:10]
00:32:14.296                             : en:Chapter 5n[00:32:14]
00:40:17.870                             : en:Chapter 6n[00:40:17]
00:48:21.443                             : en:Chapter 7n[00:48:21]
00:56:25.018                             : en:Chapter 8n[00:56:25]
01:04:28.592                             : en:Chapter 9n[01:04:28]
01:12:32.165                             : en:Chapter 10n[01:12:32]
01:20:35.740                             : en:Chapter 11n[01:20:35]
01:28:37.314                             : en:Chapter 12n[01:28:37]


